<mxfile host="app.diagrams.net" modified="2020-12-03T05:31:51.647Z" agent="5.0 (Windows)" etag="U-pHsQyGq_pivC_6-9kI" version="13.10.6" type="github">
  <diagram id="o7_8EQ_F5hT5oQO3mwsf" name="Page-1">
    <mxGraphModel dx="1038" dy="547" grid="1" gridSize="10" guides="1" tooltips="1" connect="1" arrows="1" fold="1" page="1" pageScale="1" pageWidth="1169" pageHeight="827" math="0" shadow="0">
      <root>
        <mxCell id="0" />
        <mxCell id="1" parent="0" />
        <mxCell id="xW_DpHAZmuYJ1CRfOqS2-1" value="Production" style="swimlane;html=1;childLayout=stackLayout;resizeParent=1;resizeParentMax=0;horizontal=1;startSize=20;horizontalStack=0;" vertex="1" parent="1">
          <mxGeometry x="10" y="10" width="1150" height="490" as="geometry" />
        </mxCell>
        <mxCell id="xW_DpHAZmuYJ1CRfOqS2-2" value="SLT" style="swimlane;html=1;startSize=20;horizontal=0;" vertex="1" parent="xW_DpHAZmuYJ1CRfOqS2-1">
          <mxGeometry y="20" width="1150" height="230" as="geometry" />
        </mxCell>
        <mxCell id="xW_DpHAZmuYJ1CRfOqS2-3" value="Lane 2" style="swimlane;html=1;startSize=20;horizontal=0;" vertex="1" parent="xW_DpHAZmuYJ1CRfOqS2-1">
          <mxGeometry y="250" width="1150" height="120" as="geometry" />
        </mxCell>
        <mxCell id="xW_DpHAZmuYJ1CRfOqS2-4" value="Lane 3" style="swimlane;html=1;startSize=20;horizontal=0;" vertex="1" parent="xW_DpHAZmuYJ1CRfOqS2-1">
          <mxGeometry y="370" width="1150" height="120" as="geometry" />
        </mxCell>
      </root>
    </mxGraphModel>
  </diagram>
</mxfile>
